<svg xmlns="http://www.w3.org/2000/svg" width="20px" height="20px" viewBox="0 0 40.782 40.782">
    <path id="Tracé_2" data-name="Tracé 2"
    d="M57.244-1.149H24.108a3.835,3.835,0,0,0-3.823,3.823V35.81a3.835,3.835,0,0,0,3.823,3.823H57.244a3.835,3.835,0,0,0,3.823-3.823V2.674A3.835,3.835,0,0,0,57.244-1.149ZM35.578,31.986h-5.1V14.144h5.1ZM33.029,11.6a2.549,2.549,0,1,1,2.549-2.549A2.547,2.547,0,0,1,33.029,11.6ZM53.42,31.986h-5.1v-10.2a2.549,2.549,0,0,0-5.1,0v10.2h-5.1V14.144h5.1v3.163c1.05-1.443,2.661-3.163,4.461-3.163,3.171,0,5.735,2.852,5.735,6.372Z"
    transform="translate(-20.285 1.149)" fill="#fefffa" opacity="0.97" />
</svg>